<mxfile host="" modified="2022-04-27T06:59:49.104Z" agent="5.0 (Windows NT 10.0; Win64; x64) AppleWebKit/537.36 (KHTML, like Gecko) Code/1.44.2 Chrome/78.0.3904.130 Electron/7.1.11 Safari/537.36" etag="aMtWiF5aR2zuO4XFQPJm" version="13.1.3">
    <diagram id="6hGFLwfOUW9BJ-s0fimq" name="Page-1">
        <mxGraphModel dx="1881" dy="630" grid="1" gridSize="10" guides="1" tooltips="1" connect="1" arrows="1" fold="1" page="1" pageScale="1" pageWidth="827" pageHeight="1169" math="0" shadow="0">
            <root>
                <mxCell id="0"/>
                <mxCell id="1" parent="0"/>
                <mxCell id="9" value="" style="edgeStyle=orthogonalEdgeStyle;rounded=0;orthogonalLoop=1;jettySize=auto;html=1;" edge="1" parent="1" source="2" target="8">
                    <mxGeometry relative="1" as="geometry"/>
                </mxCell>
                <mxCell id="11" style="edgeStyle=orthogonalEdgeStyle;rounded=0;orthogonalLoop=1;jettySize=auto;html=1;entryX=0;entryY=0.5;entryDx=0;entryDy=0;" edge="1" parent="1" source="2" target="3">
                    <mxGeometry relative="1" as="geometry"/>
                </mxCell>
                <mxCell id="25" value="&lt;font style=&quot;font-size: 18px&quot;&gt;拖拽&lt;/font&gt;" style="edgeLabel;html=1;align=center;verticalAlign=middle;resizable=0;points=[];" vertex="1" connectable="0" parent="11">
                    <mxGeometry x="-0.2" y="3" relative="1" as="geometry">
                        <mxPoint x="4" as="offset"/>
                    </mxGeometry>
                </mxCell>
                <mxCell id="2" value="&lt;font style=&quot;font-size: 18px&quot;&gt;左侧控件选择&lt;br&gt;(数据源头)&lt;br&gt;&lt;br&gt;&lt;br&gt;&lt;/font&gt;" style="rounded=0;whiteSpace=wrap;html=1;" parent="1" vertex="1">
                    <mxGeometry x="120" y="170" width="120" height="360" as="geometry"/>
                </mxCell>
                <mxCell id="3" value="" style="rounded=0;whiteSpace=wrap;html=1;" parent="1" vertex="1">
                    <mxGeometry x="340" y="170" width="360" height="360" as="geometry"/>
                </mxCell>
                <mxCell id="8" value="" style="shape=image;verticalLabelPosition=bottom;labelBackgroundColor=#ffffff;verticalAlign=top;aspect=fixed;imageAspect=0;image=data:image/png,iVBORw0KGgoAAAANSUhEUgAAAO0AAAFZCAYAAAB0YahYAAAgAElEQVR4Ae19bWwUR7ruc1aRjrTOHT4uH95lvfHHsIqA4HiRkwM6Zh0fLBZkhy8TX3lBd9Fir+SEXMlEsXwtjDDisqwCPyBrae1c8YPECosTzAHZicYaWFuCzVqsYyegozDGjpxsbOBie2680vl1r6r6q7qnp6fH0zPTPfNagumueuutt56ad6rq7a6n/mnN2jX/DyZ/R35zBB0dHSY5lEQIEALpROAH6ayc6iYECIH4EXhGLVJ+Eh/9j5fwLIDvh3+HWzNqDl0QAoSAixCQR9pXcPLQS8Dw77B9z3bs+183XWQimUIIEAIiArLTrsVy3/e4f5ucVQSHrgkBNyJAa1o39grZRAhYIEBOawEOZRECbkRActpDxfBjGlO33Ggi2UQIEAIiAs98evVTYOIjbN/TKabTNSFACLgUgR+waPH2L4rx6dU/oMGlRpJZhAAhoCEgTY8vjiKEXOSVaxl0RQgQAu5EgAJR7uwXsooQiIoAOW1UaCiDEHAnAuS07uwXsooQiIqA7LQP8DT8LF56lUJRUZGiDELAJQjITnsTx/77RwgV7AN7BPTR/3zFJeaRGYQAIWBEQNvlg068LjyrPfKbDUZZuicECAEXIEBrWhd0AplACMSDwDOMoYL+CAFCwDsI/NNPf/pTU7oZ7zSBLCUEsgsBmh5nV39TazMAAXLaFHRi79E6y1pi5bPCdmQsK5EzndDjhA47tpKMOQJC9NhcgFITR2D32W7udOzT+MccwCzdKCfeWzlNLF1Wtoh10LV7ESCnTVHfmDmLXYc1ysVyzBQ1iapJEwIpD0SVdE6i2g9M9OTjUty0ymdwMFiLAgWs0GW0NzQrd2n6zMO5o2UoDI/iXNc9DBqssBoVDaKmI67RYY1lot3HU69RR6wfhbhtWr0eHxwoRs7XQ9jdM2Wsju7jRMC5kbZxAG01wPWKbRiJ0whNvB47rrZi7f1TON/apSWrV824VCE5KXd+NT2dF/OYDVvXb3QCsy+9mZOJcuK1dW1SrlhnrLLR8ll6tL9oeWK9atmZMBgjb6GaQBeJIOCc09q0YqQhPwGntllJOsRmwxGjbKJmmDpAokrjKG9Wv+isZvlW6heezltlU55NBFLutDbtyigx8YuuNMwsTckzfjJZxUHslFNkFT3sXtShpLPPaOmijHKtyBo/lXz6TA0CCTtt7qkxNGz2qdZWBydRLd/N3dGmuXq5MIZPb0R/QClmWKtubkVbsFXODMU/5a7sxpstW7BUUT9/G5176jCt3Mufia2vFWVhnOyKjAoruezT6ETKl16UYWlmf8Z0O7rM9KQ3bQpNJpHz9Nrk3doTdtrp1o1oZ+2PsaZV5bhDGTcjKGvVWGtaG0DLDjvbk4/zcqCLOWfD1W5Tx7WhMW0iinMbHXcxBpmNtop+O/rMZM102tFFMokhkLDTJla986VL9m/B0tBl1WFZDSNXbqOsZQNKKiGM7kCq1tdmTmeWJqJh5iRi/mKuRSeLR7+VrKhzMTZRmfgRyDin5RD4a9EWrDWgESPEa5B26pZ9qY1/Vk6gyJqVU/IS+YzXyezaakcuEbuprIZAZjqtK57faiC76UpxLuXTyjZRhl2Lf+I9+yGI98dA1EXX8SHgnNM+eIQ5bMGGRmAk7pcmFKO7MP24FaXrXkEuuiICR4qU1efI5yFU19TiYGNzzJc3nAlEmVsjfqnNJKzykzXKsjoV3bGcTJRl9ivl2LUxT2lfLJ2KnOln/QX07SkCHn6MnW+8ZypCiRICjr4RlWuIJGvRYynAVLokEnZNRskzRJIhRI95sMuvCAqfggxLNZMziSAn02kF4yIuo33pIwTlBCt5qzxRXzS5aOliWeP1YsoYdUTcV5zAlbdKkYMFDL+zH8eDERKUICPg3EgLQI0QR8Dbhf49XeiPSDdLUCLJJnkd29BuZxS3KZeqQJRJSxJOsus4TI79iSOlWLkyOlrJiPJJuw4ex6d7+7C3cBpT5LCWMDvqtJY1UaajCCjOFs0ZYzmraIyiI54yYnlHritOYDt7z/HhKGhybI2oo9Nj66oolxAwQ6AcJz58G6U+YOGz32P/CTq60QwlMY2cVkSDrgkBDyBAzBUe6CQykRAQESCnFdGga0LAAwiQ03qgk8hEQkBEgJxWRIOuCQEPIEBO64FOIhMJAREBcloRDbomBDyAADmtBzqJTCQERATIaUU0TK4P1dSh92gVjq02yeRJjI2RyZThUDQRV6XL9tavx1ZX2UXG2EXAOadlL+kHB1Bit2aPyI0/Tc8+3MXAs7WiCr0xnTE2e+Ri6qYyqUOA3j22hfU8vmEcoKZ/HuU/SgJ7pCk8lOg4As6NtI6bRgoJAULADIGE3z3ONeyhFStR9spKMjAwMALSflZ5L6xCDHf6EcoEJsWIkwhsMi2qe2qTxmLhw7H6KmxSiChNThhg09Wmogmc+2w5mirzZGjCuPv+DZyUR+7YMnI9syI7v5T2/PgN/CoYBlt373pORF67fhjoRtOYdk9X3kcg4emxuodWcTqTEwamW/sxEazF2vJ69AeUkwPOYAM/HkQ8kcCP6pZVGD6dzwnYuLPXDKCkQ5ZxFdOiRp0qOV6UL4OvGE0vj+Lc2SFOZs4d7NX12CoeIcJkKqdw7Ww3LgKSExploqhnyRd7pHLqD4Co26IcZXkTgRRNj5sRuBPGUk4jIwPVuAkF87cR0G1q1/Mhc2eHn1PYsFIK06J4BhBjWpxbIjEt6rqAbYSvyHfBWT9TuCY4kXlgiznsEHdY1oaLQ6NY8BXgF1Ej1rqW0k2WIZDwSGsXL2W0rWwELnXUY0elH3P3L9vigVq2ph6APEK7iGnRbtsXJ+fDMua0UQNgi9NKpbyPQMqcFmjGl6FaVL94BqjMw9olIQyZHrIVCerst8qUGkDS1qiR9aY3JYxZctj0doFLa3dueszZGLWprFl7+VTWvwNvNm4B7lyOeRBXSWetbgrNmBbhZ0yLZtoNafy58STaOs8YMtx+68OxV9mxkKNysCqMb2YBLPPJL0MYAmBCcwafzANOTKsZM2JfH/rePSxop0u3IODcSBuow5/Kx9BQM8mPvGQNVKLHamMDdRjaz86nDeG66SjrQ2nLJEpb5BJsVN0jnD/L1qlgR2pqdXBJE6ZFtc5kXShnrqr6i9F0tBhN0EeH1WzLizzsOlqHXbLMwsgN7A5qL3Vc7BnCC0fLZP0Ay7+2vArbjDrHhnDtZ3XYdaAOvXLeoqLH40+xgCLkFG7HiYr3iBnRiHOa7xN+5BOv/fwxD0wOg+bRZxY5Fg/mile79+R5xLdkXheIckMrDr/LmBHH8fHOI0S05oYOEWxwbqQVlEa7ZI9w+CgrHwwdTY7S04wAMSOmuQOsq0+J0yqk4BCJx63toty0IKBnRtxJzIhp6YVYlaZ8ehzLIMonBAgBawScix5b10O5hAAh4BAC5LQOAUlqCIFUIUBOmyqkqR5CwCEEyGkdApLUEAKpQoCcNlVIUz2EgEMIkNM6BCSpIQRShQA5baqQpnoIAYcQcNRp2RtPbcFJvHmKbaXLjL/YbIxCOzeWJYGVkW0QqENvjcJ8IdSXyZccSysWTOcbz14p7T1ah3MbndftpEZHndZJw9yiy3zTulusIzucRIDvknJSYZJ0Ofoao0o9kyRj06fWio0xfVZRzclAwP37mGmkTUa/k05CIIkIODPS8m11ftXMCAZFJcfIpAg9JxRi5HOit3VfojOwCg01Sn0GHUpdik0JMl0MBm9gMKgoNX4ytv4yFOqSp3R3iNh3q+eDUsnYLBgbFYU61kUT9kddPqR9t4ytkf+xNWIlcO39p9h2oBg5stKI/bZcLnL9zPbw/upeHj44sBwDAp+VYpvaDpkPS9pyqFBVGmyBhBsCNzD7ssBo+bXIOMk0z+MbrMcHRy3sNeKrw0VjrRxYXqUxVupklBYAGBvCbg8wVzrjtGxzOidoO4ODwVoBBeFSdiK2Mb7dbAO8CdMid9IWhqKwx3bJFjRU3kZnxTbOL8V3EDV2YyRQZ4tvSrAowUvpi7da3LAuO4amOA/nXgX+eLabMzEC0pdoV/16jAtkb7DD2PhcGbaxunqYE0p17954D4Pyl4w5yQtfdWN3j1w7t6UK556IFKp52HUAKusjd6zKMhwak0nlmANU5kFzZK2NkvOHMYMC/MSEu6pouQ+QCdAlh2V7hG/IZHVMTxU+gET5quBTWFnF6+KOwp2vDOc2Gu1dgrvvd3MWD1N7DxRjRqCJZT9cTZxS7J6MOZBTUhWB3W8rpjCo/KApBnnkM0XTY4nIjfE7nTdzWIVp0cDOON16AcPzPk69quEZwvU9moN+91hjeNBkACSZjXFrRTEKw6P4o2XHT6FJdE6E8edxM3ttMDZ+PcQ5jqU2Skd7rF6hjWRsRqDjNx6bxEMdIOyGsWporI8RgZfVy5GDKXyhjjZT+OJrIGf5EkGTTDjHf4Dq8EGFZsPC03n+g7K7xIeHAa0eYAq9I2HkFOXpzg9io7dq8wz7QTD+6VlABoOjeIg8vCBHdw+VMVqeIU1HNCZLE+yMNXnp3pmR1maL5x6HrCUfT5mOlktXKlNh6+KpzBVHFqt6jVNWLmvmt1ZK7OQZp4lymUjHtVA2w2hmiiWn4I6bhxeeY1Nb5ozsT/qxeJ79WKzOw/MIA8wRg1P4yTJg5ivWMMnBCyvr+HRcLih9ONRu6cdKVvYce8ymq4X/OBlTMuk+pU67WOBiOvtiFSdQjj8KKpLI1gaj6GHTuV3Pma1hoxRYdHIezh0oBsSpurJuXIRO0eH4WladTUgkc88D2Lq+ADOfDWL25a34xeowlvn0UVdtir0IA2IUmXkieH/EOjhG4QzITtH0uAsj98NYurk1KpOiGdNi7qkjKI2DalXXH2wNHUweG2ME82GUAI7OptXr8dsSbTqpy3P45lCNMUAWuwJlurn7bDeUf2ogSy7OfqxylufhF0Xz+GIsjJOfzeP59axNymMxaUpdyNbKsauMS4K3KTyKXnn6fvGrKeA5tg6OS00CwozZow99fVdwoiIBNQkWdWSk1ehkZGsUtkQhcsuf4fJglMikKER+TZkW5XN+EmxkUoqPDeHciio0KcyHLCL5/lP89sBytTq2BttdUiYwLU7hWmAKu15WRRy6kNaMTSVV6JXPGl0YGcLdZWVYFkcNCutjxHRTiLayH6umkmI8P3IDJ5nusUnMsAg6cya5LnZMCdj5QgLDJMvSj9oxDONT9TxsUvBl4mxU7RKi8yzaCxYVN0zFBXtj1BJn9i1MPXkbpb4clO49DATfi7O8M+JEN+MMjhmgReZT1h30xZpljCBnQFMTaULFCVx5qxT47PfYnyYOrRRNjxNBicqmFYGN+fw5tG4dmVaD0lv54b2lyMEC7g/dSpshNNKmDXoXVmwagdY/dnGh1akxiZ26sKcIQPq5oMlpU9PlVAsh4BgCND12DEpSRAikBgFy2tTgTLUQAo4hQE7rGJSkiBBIDQLktKnBmWohBBxDgJzWMShJESGQGgTIaVODM9VCCDiGADmtY1CSIkIgNQg48u6xM6bWY8fVVpQqWzfTcbr7ohoivebH3r09p9s7KyhTXlrIwh0pAgp06RACLhppu9C/Jx/tFfnovCNsvXKooclTI+0xtdRvusHbsgRlEgJREXCR00a10RsZMtWKlbESs4OVBOURArERIKeNjRFJEAKuQiDxNa1M2GZkYOSkbJsf4XrFNozITTbuu2Ukb9E4o8xQMtOpMjQKvFERrI5R1seKPUbbzeqOnhbGya7u6Nk8ZwpNZ2PJxFBB2YSAjEDiI23HZQzPAwUvnhFArUfJOh/m7lxWHZY514bPpTUrW7e294QsmSwEZfFdCqyOvJ6KfFx/vAUNV7uRG58mkiYEXIlA4k6LLvQHQoB/E2TSBKDyFaxdEsaDW11qoxlzxSVOsyonddzFhJrr3EXJ/i1YGrqsq2vkym3MLdmAkkp9PSMN0o+Izi69CN0RAq5DIPHpMWsSc8CaWpSdqsdIaxcUx+kPCO2NICKX8pLhuPDXoi2Cf9lLEWkBN7okBAwIOOO0aEbgzg40rHsFufBjgx+Y6GkWqjqDgy1bAB1RuQWxuVByUZcCN9WiylMhQsDFCDgwPZZaN93ajwk2BT21CQUG0nGz9pd01qLALMMibfrbRwBWIVee5kqBKT27oRmrYzSVLBDFGBsPNkaTSGE6Y0bo60Pfu4dTWClV5UUEHGWusIrGGh2MBakerKvFikC+tP6MMn1mrPjDp7VjQZQ6ONgsKszO9al8hE4xeixHtHUdYhJBVnQlFj3W1bL4G5kwjPEPDb+zH8ejnh+0+CqoZGYg4KjTZgYk6WvF4Xf7sLcw/RxE6UOAaraDgGPTYzuVkYwFAhUnsJ0dv/dwFOlh07WwjbJchYBDgShXtcljxjDWekaADSx89nvsTBOXrsdAy2pzaXqc1d1PjfciAjQ99mKvkc1ZjQA5bVZ3PzXeiwiQ03qx18jmrEaAnDaru58a70UEyGm92Gtkc1YjQE6b1d1PjfciAuS0Xuw1sjmrEfCm07L3lIOTaMu0je3KpoG+Plyoz+rvJTXeAgGXOS2jUZ3Em6ey8Rt7GBf2FGH86k7s3LkTRzT+AIvuo6xsRMCbrzEG6nBe3GCfCT1XkYdcjONTctZM6M2ktsFlI21S20rKCYGMQMCxkVbZm6qiomOPkFkqek7hSaVwioAqI+Wrm+I3t6It2CqrCgmMjgY5tbxaq3QRsZ9W1CGdZLD2/ikMrWxFtV8ua7HfVtVuIqMyP5rlqQXpghBwDgFHnJY77Mrb6KyowzS3TXKutk6gvUGjnSmoacUyhXKGb3qvxcHGZlzqaMalCianOZQ5taoiB/A6zXDgDrsKw6fzoXBUcdngACDQuS7d3IoyZksDm49K9r52ql6ldGWb9qt1bTKrzLm08rJ1yAnfR8g5laQpQxFIfHpc2Y0yxgkVUByWIdWMSz0GhkYAOp7jQB2GQkbq1URRrseOSj8Q6lcdlmkcabiMCcZdJdLKhC6rDgqE8GTepG4TBscIKba+ZpSwInNGhFD0hPLjVzjNzOv4A3b+t+O4FV2UcggBjkDiTsvVhPHkgRmiGp+TWS5PW8kCMM7+zT02H6+WrbEflWaUr513gNIWiUeqLTiGHQYKViesvnViP48W/wGvo+/DEyh3QinpyGgEHHLaaBg9wnSsKO/jKXlKHU2Hc+mz38YXmmWOqxCeSw6cHMdlLbw1dB8LvuVQltjOtZo0ZRoCiTtt4CYezPtQ2igy+J/BwRq/7oSBCOAaB1DtD2P4irbmBbow/RhYyqlYI0rYSOjCyP0wlm4+ohsVOfOjDYZIqwqmb32JOTOBTH3Rw6ytlOYKBBwIRLEjKgFcbUVDcFJtlG79Kqey4I8+KrxRPTZEKcjWnxuCtYIuIfIbERVWSMk1GT6tPTWGhpZJlLbIWhcR2Y2IhoNxOWvBLcVe+iQEUo1AiuhmpOgsixybR4VT3WwX1scpVJfj051HiNjNhd3jJpMSnx67qTVetiXI1vZF2H6cQlFe7sZU2E5OmwqUbdXxHo68Mwy8/DZ/BEQbBmyBlpVCKZoeZyW21GhCICkI0EibFFhJKSGQPATIaZOHLWkmBJKCQMJOW1jIzrKgP0KAEEgVAgk7baoMpXoIAUJAQoCclr4JhIDHECCn9ViHkbmEADktfQcIAY8h4E2njfMlfbahPT7mRvbaZYoJ5lavxwdH69Bbk5e2r9DWiir0MhuO1uHcRs2MQzV16K1fj61aEuACe0VzsunagQ0DHoWLbz6AQGWT5nbMhDEDwCoWz5yqqcSHhZEb+FUwHGEwc65dzynJYdx9/wZOMqXqXx7OHS3T6giP4lzXPQyy/NXr8dsS4O773fjz+io0vbweW8fuYXBjGXY9N4VrZ2U5RZcNexVR+nQWAW86bSayMcr9uvDUhEKDjWoHioGRUTxEMVabfAckh2XONYSLALiDH6jCMdVxZYf9egi7e6YA+HCsvgpNjBeAOe7q5cgJT+DPM8Dg6nk0lSxHEfKwuzIPDwPdXKdJtTC110yQ0hxDwJvTY8ea7wVFPhx7tQD/8X636ejKW7B6PbY9BzwMSA7L0gaDg7gb9mFTmTTd3lpRjEJM4Rp3WCYRxsl/H8WCrxi72VR45infhF/EHH7FEiD8FGBlvh5C05gXcMoeG10y0rI15A48Ob1Rx+3Eu0E3jZW2+KmsjdHYGDlp3BYsFftRHsDY+rZhs0/NqQ5Oolq+i9wD7Ofk6aVLZAGz+pS6FrFnVzWCX0yh6Wy3PonfhXGy64ZJupDERklM4QvBubZWbMUm3kwfX4sWLfcBX48KIyb7MShGDpsZr/ABY/cw8HUddh2t4w59NwBsq5zHtbNsVDb7i2avmSylOYmAS5yWEav5sGItAAM9Te6aVcD8l/iOt9oGG6PsRLM9+TjfIUHFHXWddM0pZNil7sdAyjP+v3RzLVb05KOd6eF6d2BHZXPkD4uxYIrvpZFxAuO8XmnauwmjuDZSgF18muvDT5YBC+PyL5c63R7C3aIybFrOfpXCuNijTIMlHTMW0+IUN5GqExBw1fRYIV5jrBFtnWc0M+PgkSrZvwVLQ5dxSXZYTUn8V2zkVfUEpjAL+YdFVJUgG6OoKuHrjWXoPVqFZZ91Y3fXPdmJ9Vp5JPjAcgycZdNtk/UzXw9vxabZIfSuMI8m6zXSXaoRcInTytxQKxmt2RlsWBnGnH8TSgD8aKUP0dgVI8GqR+5KxCEfqcGLKYOM/9VXjKaXn+Lc2W79GjT8FOMI45tZIKekCtue3sBuOViltFUXTFKiyF/51GjyuZEwClk0WSlAn2lFwCVOC3z3WH6E0bgJy+5fwFCI8RRLTmifRVF0/rTimtrKWRAJwMPPxMcyPvyiyIeF8Sn+SGf8KcN3CgPio6LVeXjeF8Z/3FMeH0nrXIwM4iSEaDL/UWDRZPpzAwKucdrpbx8BK/Ow48VVeHCrCyNXbmPZi6/wtZY5p7I5fNz55VGaSRgDT2qpB48wZyQwVzPjuGBr3XQfuznDgkhAYWUZDsmmS4EozUkHg+xxUR52qS9vyIGor0fVZ7m8DEbxR+bYJtFkac1sH5vD7/YRC4d9uGxLuiQQBYA5Uc0WlD6+jHYejLqJB43s3J8QrivBKZtsjNc7J6FGhVnEt2cT2oxE44E6/Kl8DA01k2irkfCKjB7bxjGpgvqXJgCUVKGXrR2ElyNYEAns5YqjddjFrdGe2UrGsWjvEH+5oveobK76zBbAxjI08Zcr5NGa/xAI0eT3xVHcXnNDjxeAwhwU/dsJlHfR6Qn2UIstlTDdDNtP+/Dhw9g1kUQWInAYF/r2oujhx9j5xntZ2P7kNNk10+PkNI+0phOB8uPb+Tp4fJQc1sl+cM/02MlWka70IsA5nEuRgwUMv7MTx4PpNSfTaqfpcab1KLUn4xGg6XHGdzE1MNMQIKfNtB6l9mQ8AuS0Gd/F1MBMQ4CcNtN6lNqT8QiQ02Z8F1MDMw0BctpM61FqT8YjQE6b8V1MDcw0BNz9coWNjeqWHWJ8V9mMecJSgVVmPXZcZe9GyzIJM1dY1RU7T78xIoxhMxaQ2GpSLiG9V21GQqeYInNbCe9ZKznZ+pm5Iy3bfVPjxwRjnqiQ/zU0O9jPXejfI+ntvKNsbTNTL9GxHmw0yWM/KsEx7DBuZpB3J7UFB/ieYpOSEUmckYO18/RtzEXkujdB2jJoZd88Zq3gtSqaoXkZ67S55RuwdP42Ag4wWCSt7zvuYgI+rC1nlIjiXz1K1vmA0F2MiMkZez2Pb3RUryYNnQ1LVK8mWdmWlLFO642ObMaXIWDpuleQKxpc+QrWLgEmPndyZiBWQNdeRsBla1oD2yJHNqTHVyZuU5kWdWtJY/ktaAhOyuX16zz9GhCAbr0r6Vl25xTOt3bJ5aU09ORrvFF6y/R3RjuFfbsQbB75PITqmg0oqYRKGMdnCQhhSJglWNurr9r0jq/vV+nXumYxA6Pdgq06vUq8QIebTsLWzWDwBgYtNxQwNkozlkpb6jNSyEVOqzlKu+Io8pdKRV7+QolMi4wEruFqNzr31GEaGlsj/5Kv+1JOVzVIF40DeA0X0F4hOyTXW4s3T4UEJzWUifdWJVSP4exsilxTy6fI/QFmjzI17temxqmwl7UvJr7xgkDyyUDANdPj3FM7UDB/G39SHNaktWZMi4yWZm6JNFKZFDFP6timd87ATTwwJyY0L+9oqmGKzKfGYQxfEabGKbI3Lnw7tkkBPkeDe44Cm7HKXDPSMtZF2KFK9deiLVhr6JB4w4vS6KeSnsva0hV1FafIIzyA9iVGFIodblsK7XUEX0P30K2jCLjGaTkh27o8HpCZtmpigmsoNv3ccbUWBTo90jNXxpWelj95irxirTQ1nrt/ExoGKbZXh0ta0KBKYyDgmukxZ2MUp7lKoENoABuR4K+F6TNPQS7ey9xTR7SXJHhhduIBsJTzMLME85HOXj2SroIXBfL1iILSFLmg8gjWLglzNsoIESEh0l4hM9olZ58UyNYTxZeVZyyUIql8tLqTnV5/gbM+9r17ONk1uUK/q5grdBFSFrXsAF5rWYWhim26oExbDSM1F/5MIpyxAlE6HaHLuI5alD0WosWGKOpEzyk8qWzFioAcPTbka9boo9Q83ShrYq90TIkfYmRZ1Wl0sAh7DW9nqQUBkWFShy9CuH76EcoWia9qrxtGZh29zf6Mp7dxldMK3zW6JATiQoBxLO8tHMfHO48g02nkXDM9jquHSJgQEBGoOIHt7DTuh6MZ77Cs2a4JRIl9QNeEgD0EynHiw7dR6gMWPvs9dp64Za+Yx6VoeuzxDiTzsw8Bmh5nX59Tiz2OADmtxzuQzM8+BMhps6/PqcUeR4Cc1uMdSOZnHwLktNnX59RijyNATuvxDiTzs6M+yYAAABjySURBVA8Bctrs63NqsccRoJcrYnQg22Rf7QcniLskMEnEKJZQtuV70wlplgv/+CTWHy7Ff1F0zQ1j5Pwx/Kdyb/lZj/y2fRo9zsOP8Jf3FXYPy4KU6RAC5LQOAekdNfXIP1wK/PUM/vLJzUWY3YXJ9i4wEh/fgU+wbhEaqEhiCJDTxsBvpCFf22EUQ9YT2T9/EbkYx/1FOawnWpjxRtKaNuO7mBqYaQi4aKTVCNACa8bQsNknYW3cr2lnb6pRhmlS97DKe08fX0a7ym8kM1fc1/bT6veemuyRlTfGM3bG5Ngb+VVb/Pr6Fax+sxkFKoUlsK7tE7WC6Ru/xOTf5FvjepeNyu2vI15Cn3/+ZQ9KXnpWrQMmevj0mu3Okf90diiJ9BmBgIucVrKtoGYSDcxRK5pldkDGVNEs0ZbKzhidjdGcUVAK7ES03TKBM/YzCV7nhqiybrE3qoE84yZmzt8E5wP/+R/wL1WI4oj1yK8BQu2/lINSkrOve/NkHIEqAD//A0pemsH99pqozs4ddvkwRtrlABj/sfgE+RB+QKwblbW57pseiyOrzJK4bI3EwG+HLdBMJqm9m0J72fqaHXGSvCh2FyZ1UeSbmPvq+0XCV4TlP49S9McnkVf4PSZ6hIj1349h6iGQu8542kIUHVmc7LqRdu6xSE7OzsvpQr/YQZZsgfXIXQnM3Rd1iIWdv/aavbEQME5ZuXy8NJV/ex1/ARvRP0FulVRj5NT3WRQc/gRGRkw8jGUh5bvOaWN2iTiyRQh3YfpxK0pVQrYIgdQneMhetg5dV6hfw/K16c8WARtzXGWdzKfkbA0tTn2/x8R7NZj5+yJ0Z3kR902PLTrEDhsjp2L171BPotMHlJhy5tgAVkp0rRKlqnBkpUX98WbZt3eTejpepL1arSwQxRgQnWaj1GowXP34JPy6YJIh3+7t3z4XKGEB/D2IJ3PPoqDmJP45lg5G2tbXh74PT6A8lmyW5HtrpGWs9hhAm3guDusoNTIMsADSdfYWU8skSlukM3o67+xAg/AWwEjDZWwI1qrn/DDGwusrW1Gmdnoku2GprE9kN1TFo13EY29wEtVMDxuZezahzeT4y2jVOJX+n598iumX9gmR5XHcvzGOdf8q1MBHzSIhYR/+pW0fxOhwZOQY+L9/PYN7ysgLFhgD8GYzSoQoNlMaMY0OTmH6rVIU+Uqxrx64RS9fISvoZqTocZRzfYSvH126E4Hy41fw9svA8DuZT49qpwc8NT220yCSyTQEDmPfyzlA+D5uWp6ul2ntjt4eb02Po7eDcjIQAYnLmFGjfoydb2Q6m7H9DsyK6bF9OEiSEHA/AjQ9dn8fkYWEgA4BclodHHRDCLgfAXJa9/cRWUgI6BAgp9XBQTeEgPsRIKd1fx+RhYSADgFyWh0cdEMIuB8Bclr39xFZSAjoEHD3yxX8BHTgungSPDNfYaYQ3jnWtSrhG4lFY9kdjckiUqXh/WQHbUn6a5dGdgpiY4zsXhenuNtpXQwc2y2k7PWVnMzVxgrGERujAIYnL73ptIE6nA94Eu/0G01sjOnvgwQtoDVtggBScUIg1Qi4bKSV1pJ6ChKROsaQH40VQlnzCmhO9Oi5lSI2m5vomv0W2HF1EqVLZEUmMkIV5pdGW8zWvkYZpmk+Uh2xMUZiko0pLnJaLfjT3irvdJYDUVrHNOMSY2kEwL/AWoZwdQYHW7ZAZGwUMqXLxgG8hgtor5Dr4U5TizdPhXBeqRtAQU0rWDCK2yPLqMyQEUpNEmRnFG1hdjdc7UbnnjqJzcFExvk1MrExmvSOZ5NcMz3OPbUDBfO38SfBaRJBteDFM9GLd2zTOSdk1kdjAR1LRaAOQyHAUq9BgRkz5MiV25hbsgElMjOFmYxBjXpLbIwqFFl94ZqR9kcrfcDjKT2X0KK6ho3GwMFgLdqCtZKGiGmtYZot12OLdFDmlpq2a5vL2CNjmU1sjLEQSn++a5yWE7Ktk8jWbDtEVPy0aTTkkwDaOiGfKMCer9aiQOfI8gkDUfUJGfH+sOjqEfTwS3exRxIbo7F/3Hnvmunx9LePAGHaCL6e9TuAWjO+FGNZJhpzTx3Rgk0m+TypcQDV/jCGr0hr6mhiYjqxMcpoEBuj+LVI+NpVzBW6iC6LsnYAr7WswpDyRlRURw5pb03JgR3h2BodWyNHzKgndBnXUYuyx8obUIa3nXghoQ52b1YPlzOc+2Osi8kYIshKVFiq5jLaP2dsjI+0YBXPkINviZ6VG+tYEPHsWXb+zg1g3b8+1Y4FiWBjlI0TzuqJysaoO6kv8nwhpimCjRGHcaFvLxj/4/jVnThCbIzZwcaofK3o05sIEBujvt9cMz3Wm0V3hICCALExKkgon64JRCkG0SchoCBAbIwKEvpPV61p9abRHSFACJghQNNjM1QojRBwMQLktC7uHDKNEDBDgJzWDBVKIwRcjAA5rYs7h0wjBMwQIKc1Q4XSCAEXI0BO6+LOIdMIATMEyGnNUKE0QsDFCLjbadl7u8EBlLgYQO+ZlodzR+vQW78eW11g/KGaOvQercO5jck1ZmtFVUrqSW4rJO0Z+kaUtF8WBooZu4DqNi5EFDJsHIjId3vCPGbDidrIHL8MCHSjaSxRXakpP/hkHk3wpaayJNeSoU6bGGrTrRvRLquQqF++jNhxk1gNLig9G8agC8y42NONiymzI4zZmZRVlrSK3D09TlqzSTEh4F0EXDbSmtHAGHawR+xjFaarxryaSbTVyJ1j2MMaMQW2ZJgwdrC83xa3DSOwbL+sSx2lA6vQUKNs6Dfst2WqjXYbbFVqV/bdGpkllXx7n2Gc7OqOLrp6PT44UIwcQeKhMg025lXWoVfmukJ4FOe67vHRm60fm4omcK4rjN1Hy1DIdYVx9/0bOCmPdFymRJmu6vO4+MYyrvva+0+xTbBHtUWxj8vlKXfq58LIDfwqKKwDxoaw2yNTebURUS5c5LTSF15lP2QG8w3kouVncLAR+FNFvswlJTlP9dVufMfYDVUS8xhrWptsjGLN+usu9AdqUVojEbT1K8TpjZtQgBCuNwjsFku2oKGG/bDkY0RhkWzsxkggOhtjBGOjvvIk3uXh3IFizChOaqxp5h5+dfYeABtrWl8xmo4yZ+zG7hmABZx2vboeW2XHHgzewGAQAP8h0JPmatXmYdcB4NpZaQrNHb2yDIfGhqQpNStbmQfNkSW7VhsdVlOYEVeumR7bY2NsxiWFepTD34WR+8Kvqd0uscnGaKmu4zKG531YW16vipW86MfcncvcOdVE5sQK8wYAO2yMRhlFV/LZGKWaCn8WOXIpNtj/1I+eF7+aAnzLOQNFfDpkBwXAgkm6v9XLkYMpfKGOoFP44msgZ7lCVK2Tzpgb14y0dtkYlSmirgcMfanLM70xm4YDttgYVX3KaFuLEnRhpLIbZf4wHlyxw4fiw4q1AJQR2pKxUa0wBRdTaDo7xCPDvUfl6r4ewu6eqUXUPY9vxKBPMqanM0+xgGK8wB4XccfNwwvPAQsjcX8hFtG+9BVxjdPaYWNka8Rqv37kktaN8QDIptQJsDGKVXXcxURNLTY0At+t2YCloX6oU2VRLuI6jCcPhMS41tNCuaRcMsdV1rzSdLO3ZrGOmxQDI5QWCmvriLVshLT3E1wzPV4UG2NlN17brAQzxM4Igc2k7BKL22JjFNWr180I3AmjoHIMr22GDabGeuxo3KJzbjuMjUp1bJbRFpzk63olLbmf0nQzsg7pWa8z0+hI7XZTDpUVI4fNBM52q/90wSe7imQ5xpTR19eHC9qKJ04NqRF3zUiLjm3oXDOGhpZJlLbIjIWnH3E2RgWK6dZ+TARrUR2cRDVPDOF6TwjVSgRTEWTHUHa8grUtAmG5GpHVprUimfn1UC3K1PL2LxSbGI+y+SjrF+wF2KkF6rEnrJqObWjHANrESDdLV+21b0vCksboMFPIo8LG6XEYJ/99FB8cKIM6jRaix7Ht8OFYfRU2Cb+3mw7UoRdsamuI+loou9gzhBeOCjYosnHZohQCQo8XgMIcFP3bCZR3HcctLctVV0Q3k3B3RI9US4+VHukCUQlXRwpkBGTHnzVO3ROJIMt0rQ8/xs433nMt0q6ZHrsWIUvDtPXxpQ5LQcpMFQIb8/lz4Zkn8T9VKD++XeJXHnWvwzIY3TM9TlWnOlKPEH12VRDJkcZ5RInJFJ1bLj0bVl7isNWYihO48lYpcrCA4Xd24jh7fuziP5oeu7hzyDRCwAwBmh6boUJphICLESCndXHnkGmEgBkC5LRmqFAaIeBiBMhpXdw5ZBohYIYAOa0ZKpRGCLgYAXJaF3cOmUYImCFATmuGCqURAi5GwGNOy15qkF6aZy/Ot3WeSR+0nClyDDsi3nuO16TFtIm9iTWJN0+5+812OwyIEhtjFY6tjhe37JX3mNM241JFPtor8nHdwELj3S7MxDZJvRGxad2kk8afxv+6oYmarErymNNmVd9kSGPtMCAaNsxnSMuT1Qxy2mQhS3oJgSQh4J4NAzKJ2/XTj1DWsgVL5QYvinnQyG5o4GmSVAsv/Uepy0htY2rL2m68aWUvb5fCxMgq0jNvyFXH/JC2+QkbUBFJj2Ntr9ReRuAeYPuWFfIAsw0Pis1meTEtFQRsUMyoBG9CMbq0RsA9Tsvt9KO6ZRWGT+fzDeX8i1ozgJKObQayNKtGxWBsZEUVp7b4UnIHWHkbnRUia+IkDiIf2jY8H0prVqlMi9zeym7kdshl+Jdfaw+rmusNDgAC2ZtVa1ieti93o4yDxELJaKaUP3v2AgU1k2hg7a5olnGoxcHGZqFNikb6dCsCLpse6zmBOSsE/JyDyT6AsRkbS/ZvwVLGDCFSnYoVyCRtw4rzsbxAHYZCRgobZq/2gyJR5qzCj7iueuyo9AMG3qiRhsuYiKtNZ1C52YeJHq0e0VR+bdteNtBfRrvS7sBNPJgHlq0xRKEZmwYL+ClyERVSQjoRcNlIaw6F9KWyw3IolTdOE3mqkaDv8ZTMnWxeJ+BDqUJ9I4rEGbWee2xewHabKvOwDGE8EIngRHvUa3v26u3pQv+eLvSrOujCCwh4wmlnv7XvsGwqmThjI+s6/ajvdGfablNgCrMtW/SUq6bGJNde0yopMS0IuGx6rMegpLMWBfO3EUiEysWEsVFhQIz6cgKfNvpQ2tiNXL1JcdxJROpLNx/RvYARf5uMzJLSerZU5ON2xF6haWwtnu6XVxRzGKtEXx/6PjyBciUtyz9dNtIapnhs/bVHOGJDiWqqnaawLWoRWYUd0ZKxka3ZHrCobyvagq2qNi06zKaNAK62oiE4qeazC01Gl2x6w07f6zwlMEwyKSPLYsw2MVv8WBFU2irZcP3FSYE90hl7TRuR7sTgFKbfKkWRrxT76oFb9idd6bY8afW7h25GjbRujEJFmjQMSLHLESg/fgVvvwwMv7Pf9fxNqYDS1dPjVABAdbgdgcPY93IOEL6Pmy4nXEsVki6bHqeq2VSPFxBgjP972TmZLuchTjWW7pkep7rlVB8h4FEEaHrs0Y4js7MXAXLa7O17arlHESCn9WjHkdnZiwA5bfb2PbXcowiQ03q048js7EWAnDZ7+55a7lEEyGk92nFkdvYiQE7rlr5np7AfrUNvTV5Ui+ywG0YtTBkZg0BWvhElMUHoqVtYj8azGcDxb8BMGDMAPxA5mm7GbtiESLujyVN6ZiKQlU4rdaW2M8hNXbvw1Lhb32idHXZDYxm6zyQEaHqcSb1JbckKBFw00tpkC1RI2ZTuMe5PZekRe1Ql4bk7p3C+1caGTKW8yKcEmb3RWJ9ijzFdsc/25xSaznZbS9tgN7RWQLmZgIDrRlrOFriyXyIWO30bc37GFihDLTvIbI90ygA/aeDxFjRcFRgmmEyNn69POTlZBSNSAyId1g+2UZ4zNPBP4YgPtkleVzdji5BYNDr3yEyLmdD71AZPIuCikVbGTxzdGI1K4xas5WyBXeAsiqHLOC/Qz4xcuY2ylg0oqYS0eX7tKixFCEOqTDO+DNWieqXIPczqirGmDdTh/NoBtNUMYMeaVShdwuRNHJbJBTzZ92S0RxFwndPGZAv0a7QrGubCeTAPHmEOWzjt6gh33DPY4GcjrTkroqbD5KpjGxitS/VmPVWqiSQlEQIpQ8B1Thuz5eJIbCHMptltNZJA5NTYoqCQxZkdGWF5zyo0tAxgOmDBPSyUo0tCIJkIuG5Na9VYhUVRXeOaCCtTaGk9K619bQWfjLoaB9CwGeCE5WzEDflRLa6dFXm2hmZrYrM8RYY+CQEHEfDWSMsCRGDrTG0U5VgIkVvG4L9BYC5UsRJkpDQpEFWtCmgvVygvX7ARul9eryp6G4IDuB7HkR6CerokBBxBIMPoZmRO4MfC0RccJulxzTK7j3wcgZaUEALJQcBT0+NFQ9C4CQUAbLP6L7oiKkgIJB+BDBtphRPxdNjRkRk6OOjG0whkntN6ujvIeEIgNgLZMT2OjQNJEAKeQYCc1jNdRYYSAhICCU+PCUhCgBBILQI00qYWb6qNEEgYAXLahCEkBYRAahEgp00t3lQbIZAwAuS0CUNICgiB1CLgzLvHFSdw5a1S5ABY+Oz32H/iVmpbQbURAlmEgLPR4/oL6NuTSyd2Z9EXiJqaegScnR53fYThcA6WF6W+IVQjIZAtCDjrtNmCGrWTEEgjAuS0aQSfqiYEFoOAw057C1NPgKLiw4uxhcoQAoSADQQcdlrgvTd2YudoMfr6+nDleLkNE0iEECAE4kHAmUc+Qo2H3+3DXnyMnTuPCKl0SQgQAk4h4PBIW468FcD46HtO2Ud6CAFCwICAw05r0B5xW44TH/ahr+8KTlREZFICIUAI2EAgxU4rBaqAHJTupWCVjf4hEUIgAoEUOy3w3sfDWGCvOz5eBON/hPmUQAhkHwLOOm39PpT6FvB0PDqQh/eyd5QXcH+I3k+OjhLlEALREXAmeixsGBi/uhPHgyYV8veS2fuN4/h45xFQqMoEI0oiBGwg4OyGARsVkgghQAgkhoCz0+PEbKHShAAhYAMBclobIJEIIeAmBJ754Q9/6CZ7yBZCgBCIgQCNtDEAomxCwG0IPPOPf/zDbTaRPYQAIWCBAI20FuBQFiHgRgTIad3YK2QTIWCBgCNOy05Ob7vajVyLityYtbWiCr1H63BuY3TrDtXUofdoFY6tji5DOYRAKhFwxGlTabCTdQ0+mY+pbvxpOKYMCRACqUQgq51WAjqM2ZlYkM/jm5gysXRQPiHgDALktM7gSFoIgZQh4MyGAaO5jQNoq/EDCOF6xTaMyPklnZOoZsny30RPPi51sJt67LjailLcRueeOkwrAjiDg8FaFIQuo72hWU2Fot+YrknYuxobwu4xa9HB4A0Mmm2AsC5GuYRA0hBwfKRljtlWswrDp/PRbnTYlbfRWcHS89F++jaW1UziYCNrWxf6AyFgyQaUVAptbdyEAub4osMK2XRJCGQjAs457ZItaAhOopo75kb0BwQ4K7tR5g9juEMYRQN1GAoBBS+ekQQ7LmN43oe15fVqwZIX/Zi7c1kdqdWMjm2S45Mzq5DQRfYg4Nz0eP42hh9vQalfGi11Tsvx9KG0ZRKlLQZwVQILNtrWorSmFiXowojs6A+udBkK0C0hkN0IOOe0AEYa8jHN1q0tA5gOaGtZCeIwhk8bRmAj9h13MVFTiw2NwHdrNmBpqF8/Yhvl6Z4QyEIEnJsey+CNNJzC8Lwf1cEBlCiABm7iwbwPpY2xXsBoRuBOGAWVY3htMzB8RQg+KbrYJwtEBSfR1ilPrcU8uiYEMhwBR0daCasu9O/xY0WwFtXBMeTy0ZWlAbjayte9IqZaBFlKnW7tx4QcMY6cYosl6ZoQyE4EXEg3Iz3mgfo4KDs7hlpNCERDwPHpcbSK7KWz57XSc1np+a29UiRFCGQTAkmYHi8GPvklClY00RcmFlM9lSEEPISAC6fHHkKPTCUE0oAAcUSlAXSqkhBIBAGXrWkTaQqVJQSyA4Fnfv3rX0dtaUcHf5s/aj5lEAKEQOoReObC/75gWuuR39Ch0KbAUCIhkGYEaHqc5g6g6gmBeBEgp40XMZInBNKMADltmjuAqicE4kXgmYZzn2JfASsWwkd7XkdnvBpInhAgBFKKwA86m7Zj+57f4a9hP/ada0hp5VQZIUAIxI+APD2+iWO3QsB/zcMr8eugEoQAIZBCBGhNm0KwqSpCwAkEyGmdQJF0EAIpREBz2omn+N63DhXlKaydqiIECIG4EdCc9tYx7NvzLnDoU3x69Q9YF7cqKkAIEAKpQEBz2vKT+OjqG8BFFk1+HfdTUTvVQQgQAnEjoDltwXI8G76P4K24dVABQoAQSCECmtPGqrT+Avr6+tD37uFYkpRPCBACSUTAvtOOP8UCM6RwO05UJNEiUk0IEAKWCNh32uBxfPqQ6ZrGFB1IZQkqZRICyURAdtpXcLLcD/yfKdyMVlvFCWwvBPBwFO9Fk6F0QoAQSDoC/x/PzLF3tB0w2AAAAABJRU5ErkJggg==;" vertex="1" parent="1">
                    <mxGeometry x="-160" y="177.5" width="237" height="345" as="geometry"/>
                </mxCell>
                <mxCell id="10" value="&lt;font style=&quot;font-size: 24px&quot;&gt;表单&lt;/font&gt;" style="rounded=0;whiteSpace=wrap;html=1;" vertex="1" parent="1">
                    <mxGeometry x="340" y="170" width="360" height="60" as="geometry"/>
                </mxCell>
                <mxCell id="13" value="" style="rounded=0;whiteSpace=wrap;html=1;" vertex="1" parent="1">
                    <mxGeometry x="827" y="170" width="283" height="360" as="geometry"/>
                </mxCell>
                <mxCell id="14" value="&lt;font style=&quot;font-size: 24px&quot;&gt;控件配置&lt;/font&gt;" style="rounded=0;whiteSpace=wrap;html=1;" vertex="1" parent="1">
                    <mxGeometry x="830" y="170" width="280" height="60" as="geometry"/>
                </mxCell>
                <mxCell id="16" value="控件1" style="rounded=0;whiteSpace=wrap;html=1;" vertex="1" parent="1">
                    <mxGeometry x="460" y="290" width="120" height="60" as="geometry"/>
                </mxCell>
                <mxCell id="17" value="控件2" style="rounded=0;whiteSpace=wrap;html=1;" vertex="1" parent="1">
                    <mxGeometry x="460" y="370" width="120" height="60" as="geometry"/>
                </mxCell>
                <mxCell id="21" style="edgeStyle=orthogonalEdgeStyle;rounded=0;orthogonalLoop=1;jettySize=auto;html=1;" edge="1" parent="1" source="19">
                    <mxGeometry relative="1" as="geometry">
                        <mxPoint x="520" y="540" as="targetPoint"/>
                    </mxGeometry>
                </mxCell>
                <mxCell id="27" value="&lt;font style=&quot;font-size: 24px&quot;&gt;配置属性&lt;/font&gt;" style="edgeLabel;html=1;align=center;verticalAlign=middle;resizable=0;points=[];" vertex="1" connectable="0" parent="21">
                    <mxGeometry x="-0.3811" y="2" relative="1" as="geometry">
                        <mxPoint as="offset"/>
                    </mxGeometry>
                </mxCell>
                <mxCell id="22" style="edgeStyle=orthogonalEdgeStyle;rounded=0;orthogonalLoop=1;jettySize=auto;html=1;" edge="1" parent="1" source="19">
                    <mxGeometry relative="1" as="geometry">
                        <mxPoint x="970" y="540" as="targetPoint"/>
                    </mxGeometry>
                </mxCell>
                <mxCell id="26" value="&lt;font style=&quot;font-size: 24px&quot;&gt;回显&lt;/font&gt;" style="edgeLabel;html=1;align=center;verticalAlign=middle;resizable=0;points=[];" vertex="1" connectable="0" parent="22">
                    <mxGeometry x="-0.1802" y="-2" relative="1" as="geometry">
                        <mxPoint x="-23" y="-2" as="offset"/>
                    </mxGeometry>
                </mxCell>
                <mxCell id="19" value="&lt;span&gt;状态管理vuex&lt;/span&gt;" style="rhombus;whiteSpace=wrap;html=1;" vertex="1" parent="1">
                    <mxGeometry x="687" y="610" width="140" height="140" as="geometry"/>
                </mxCell>
            </root>
        </mxGraphModel>
    </diagram>
</mxfile>